<svg width="0" height="0" class="hidden">
    <symbol viewBox="0 0 18 18" fill="currentColor" xmlns="http://www.w3.org/2000/svg" id="phone">
        <path d="M7.66389 10.1181L9.81275 12.267C10.0052 12.4594 10.301 12.5029 10.5406 12.3743L13.1159 10.9918C13.3063 10.8895 13.5365 10.8944 13.7224 11.0049L17.4798 13.2345C17.7479 13.3936 17.8558 13.7263 17.7303 14.0116C17.4092 14.7422 16.8248 16.0814 16.5926 16.6736C16.5438 16.7982 16.4711 16.9124 16.37 17C13.8659 19.1706 8.88374 16.5258 5.07028 12.7123C1.25624 8.89867 -1.38854 3.91654 0.782049 1.41244C0.869774 1.31128 0.983974 1.23857 1.10845 1.18977C1.70039 0.957613 3.03977 0.373177 3.77042 0.0521124C4.05572 -0.0733497 4.38844 0.0345279 4.54749 0.302641L6.77716 4.05998C6.88741 4.24591 6.89235 4.47608 6.7902 4.66655L5.40775 7.24139C5.27912 7.48105 5.32259 7.77682 5.51503 7.96926L7.66389 10.1181Z"
        />
    </symbol>
    <symbol viewBox="0 0 21 17" fill="currentColor" xmlns="http://www.w3.org/2000/svg" id="telegram">
        <path d="M18.6646 0.110375L0.934606 6.94737C-0.275394 7.43337 -0.268393 8.10837 0.712607 8.40937L5.26461 9.82937L15.7966 3.18437C16.2946 2.88137 16.7496 3.04437 16.3756 3.37637L7.84261 11.0774H7.84061L7.84261 11.0784L7.52861 15.7704C7.98861 15.7704 8.19161 15.5594 8.44961 15.3104L10.6606 13.1604L15.2596 16.5574C16.1076 17.0244 16.7166 16.7844 16.9276 15.7724L19.9466 1.54437C20.2556 0.305375 19.4736 -0.255625 18.6646 0.110375Z"
        />
    </symbol>
    <symbol viewBox="0 0 18 23" fill="currentColor" xmlns="http://www.w3.org/2000/svg" id="map-point">
        <path d="M9 0C13.9707 0 18 4.02942 18 9C18 11.4844 16.9936 13.7339 15.3652 15.3623C13.7368 16.9916 9.90076 19.3497 9.67578 21.8252C9.64162 22.1963 9.37276 22.5 9 22.5C8.62806 22.5 8.35936 22.1963 8.3252 21.8252C8.10022 19.3497 4.26323 16.9916 2.63477 15.3623C1.00721 13.7339 4.39599e-05 11.4844 0 9C0 4.02942 4.02933 1.74007e-06 9 0ZM9.02539 5.86719C7.28079 5.86719 5.86719 7.28176 5.86719 9.02637C5.86736 10.77 7.2809 12.1846 9.02539 12.1846C10.7698 12.1845 12.1834 10.77 12.1836 9.02637C12.1836 7.28182 10.7699 5.86727 9.02539 5.86719Z"
        />
    </symbol>
</svg>
