<svg width="0" height="0" class="hidden">
    <symbol viewBox="0 0 18 18" fill="currentColor" xmlns="http://www.w3.org/2000/svg" id="phone">
        <path d="M7.66389 10.1181L9.81275 12.267C10.0052 12.4594 10.301 12.5029 10.5406 12.3743L13.1159 10.9918C13.3063 10.8895 13.5365 10.8944 13.7224 11.0049L17.4798 13.2345C17.7479 13.3936 17.8558 13.7263 17.7303 14.0116C17.4092 14.7422 16.8248 16.0814 16.5926 16.6736C16.5438 16.7982 16.4711 16.9124 16.37 17C13.8659 19.1706 8.88374 16.5258 5.07028 12.7123C1.25624 8.89867 -1.38854 3.91654 0.782049 1.41244C0.869774 1.31128 0.983974 1.23857 1.10845 1.18977C1.70039 0.957613 3.03977 0.373177 3.77042 0.0521124C4.05572 -0.0733497 4.38844 0.0345279 4.54749 0.302641L6.77716 4.05998C6.88741 4.24591 6.89235 4.47608 6.7902 4.66655L5.40775 7.24139C5.27912 7.48105 5.32259 7.77682 5.51503 7.96926L7.66389 10.1181Z"
        />
    </symbol>
    <symbol viewBox="0 0 21 17" fill="currentColor" xmlns="http://www.w3.org/2000/svg" id="telegram">
        <path d="M18.6646 0.110375L0.934606 6.94737C-0.275394 7.43337 -0.268393 8.10837 0.712607 8.40937L5.26461 9.82937L15.7966 3.18437C16.2946 2.88137 16.7496 3.04437 16.3756 3.37637L7.84261 11.0774H7.84061L7.84261 11.0784L7.52861 15.7704C7.98861 15.7704 8.19161 15.5594 8.44961 15.3104L10.6606 13.1604L15.2596 16.5574C16.1076 17.0244 16.7166 16.7844 16.9276 15.7724L19.9466 1.54437C20.2556 0.305375 19.4736 -0.255625 18.6646 0.110375Z"
        />
    </symbol>
    <symbol viewBox="0 0 18 23" fill="currentColor" xmlns="http://www.w3.org/2000/svg" id="map-point">
        <path d="M9 0C13.9707 0 18 4.02942 18 9C18 11.4844 16.9936 13.7339 15.3652 15.3623C13.7368 16.9916 9.90076 19.3497 9.67578 21.8252C9.64162 22.1963 9.37276 22.5 9 22.5C8.62806 22.5 8.35936 22.1963 8.3252 21.8252C8.10022 19.3497 4.26323 16.9916 2.63477 15.3623C1.00721 13.7339 4.39599e-05 11.4844 0 9C0 4.02942 4.02933 1.74007e-06 9 0ZM9.02539 5.86719C7.28079 5.86719 5.86719 7.28176 5.86719 9.02637C5.86736 10.77 7.2809 12.1846 9.02539 12.1846C10.7698 12.1845 12.1834 10.77 12.1836 9.02637C12.1836 7.28182 10.7699 5.86727 9.02539 5.86719Z"
        />
    </symbol>
    <symbol xmlns="http://www.w3.org/2000/svg" viewBox="0 0 24 24" fill="currentColor" id="instagram">
        <path fill-rule="evenodd" clip-rule="evenodd"
              d="M12 18C15.3137 18 18 15.3137 18 12C18 8.68629 15.3137 6 12 6C8.68629 6 6 8.68629 6 12C6 15.3137 8.68629 18 12 18ZM12 16C14.2091 16 16 14.2091 16 12C16 9.79086 14.2091 8 12 8C9.79086 8 8 9.79086 8 12C8 14.2091 9.79086 16 12 16Z"
        />
        <path d="M18 5C17.4477 5 17 5.44772 17 6C17 6.55228 17.4477 7 18 7C18.5523 7 19 6.55228 19 6C19 5.44772 18.5523 5 18 5Z"
        />
        <path fill-rule="evenodd" clip-rule="evenodd"
              d="M1.65396 4.27606C1 5.55953 1 7.23969 1 10.6V13.4C1 16.7603 1 18.4405 1.65396 19.7239C2.2292 20.8529 3.14708 21.7708 4.27606 22.346C5.55953 23 7.23969 23 10.6 23H13.4C16.7603 23 18.4405 23 19.7239 22.346C20.8529 21.7708 21.7708 20.8529 22.346 19.7239C23 18.4405 23 16.7603 23 13.4V10.6C23 7.23969 23 5.55953 22.346 4.27606C21.7708 3.14708 20.8529 2.2292 19.7239 1.65396C18.4405 1 16.7603 1 13.4 1H10.6C7.23969 1 5.55953 1 4.27606 1.65396C3.14708 2.2292 2.2292 3.14708 1.65396 4.27606ZM13.4 3H10.6C8.88684 3 7.72225 3.00156 6.82208 3.0751C5.94524 3.14674 5.49684 3.27659 5.18404 3.43597C4.43139 3.81947 3.81947 4.43139 3.43597 5.18404C3.27659 5.49684 3.14674 5.94524 3.0751 6.82208C3.00156 7.72225 3 8.88684 3 10.6V13.4C3 15.1132 3.00156 16.2777 3.0751 17.1779C3.14674 18.0548 3.27659 18.5032 3.43597 18.816C3.81947 19.5686 4.43139 20.1805 5.18404 20.564C5.49684 20.7234 5.94524 20.8533 6.82208 20.9249C7.72225 20.9984 8.88684 21 10.6 21H13.4C15.1132 21 16.2777 20.9984 17.1779 20.9249C18.0548 20.8533 18.5032 20.7234 18.816 20.564C19.5686 20.1805 20.1805 19.5686 20.564 18.816C20.7234 18.5032 20.8533 18.0548 20.9249 17.1779C20.9984 16.2777 21 15.1132 21 13.4V10.6C21 8.88684 20.9984 7.72225 20.9249 6.82208C20.8533 5.94524 20.7234 5.49684 20.564 5.18404C20.1805 4.43139 19.5686 3.81947 18.816 3.43597C18.5032 3.27659 18.0548 3.14674 17.1779 3.0751C16.2777 3.00156 15.1132 3 13.4 3Z"
        />
    </symbol>
    <!--<symbol viewBox="0 0 10 6" fill="none" xmlns="http://www.w3.org/2000/svg" id="arrow">
        <path d="M8.70703 0.707031L4.70703 4.70703L0.707031 0.707031"
              stroke="currentColor" stroke-opacity="1" stroke-width="1.41421" stroke-linecap="round"/>
    </symbol>-->
    <symbol viewBox="0 0 24 24" fill="none" xmlns="http://www.w3.org/2000/svg" id="arrow">
        <path d="M8 4L16 12L8 20" stroke="currentColor" stroke-width="2" stroke-linecap="round"
              stroke-linejoin="round"/>
    </symbol>
    <symbol xmlns="http://www.w3.org/2000/svg" fill="currentColor" viewBox="0 0 24 24" id="blockquote">
        <path fill-rule="evenodd"
              d="M3 6.25a.75.75 0 01.75-.75h13.5a.75.75 0 010 1.5H3.75A.75.75 0 013 6.25zM3.75 11a.75.75 0 01.75.75v7a.75.75 0 01-1.5 0v-7a.75.75 0 01.75-.75zM8 12.313a.75.75 0 01.75-.75h11.5a.75.75 0 010 1.5H8.75a.75.75 0 01-.75-.75zm0 5.937a.75.75 0 01.75-.75h11.5a.75.75 0 010 1.5H8.75a.75.75 0 01-.75-.75z"/>
    </symbol>
    <symbol xmlns="http://www.w3.org/2000/svg" viewBox="0 0 24 24" fill="none" id="no_photo">
        <path d="M11.6598 15.9809C10.2795 15.8251 9.18288 14.7327 9.0207 13.3543M9.5 5H14.5C15.0523 5 15.5 5.44772 15.5 6C15.5 6.55228 15.9477 7 16.5 7H19C20.1046 7 21 7.89543 21 9V16.5M3.5 7.67709C3.18882 8.02965 3 8.49278 3 9V17C3 18.1046 3.89543 19 5 19H14.5M3 3L21 21"
              stroke="currentColor" stroke-width="1.5" stroke-linecap="round" stroke-linejoin="round"/>
    </symbol>
    <symbol xmlns="http://www.w3.org/2000/svg" viewBox="0 0 24 24" fill="none" stroke="currentColor" stroke-width="2"
            stroke-linecap="round" stroke-linejoin="round" id="cookie">
        <path d="M12 2a10 10 0 1 0 10 10 4 4 0 0 1-5-5 4 4 0 0 1-5-5"/>
        <path d="M8.5 8.5v.01"/>
        <path d="M16 15.5v.01"/>
        <path d="M12 12v.01"/>
        <path d="M11 17v.01"/>
        <path d="M7 14v.01"/>
    </symbol>
    <symbol xmlns="http://www.w3.org/2000/svg" viewBox="0 0 720 720" fill="currentColor" id="max_messenger">
        <path d="M350.4,9.6C141.8,20.5,4.1,184.1,12.8,390.4c3.8,90.3,40.1,168,48.7,253.7,2.2,22.2-4.2,49.6,21.4,59.3,31.5,11.9,79.8-8.1,106.2-26.4,9-6.1,17.6-13.2,24.2-22,27.3,18.1,53.2,35.6,85.7,43.4,143.1,34.3,299.9-44.2,369.6-170.3C799.6,291.2,622.5-4.6,350.4,9.6h0ZM269.4,504c-11.3,8.8-22.2,20.8-34.7,27.7-18.1,9.7-23.7-.4-30.5-16.4-21.4-50.9-24-137.6-11.5-190.9,16.8-72.5,72.9-136.3,150-143.1,78-6.9,150.4,32.7,183.1,104.2,72.4,159.1-112.9,316.2-256.4,218.6h0Z"/>
    </symbol>
    <symbol viewBox="0 0 16 16" xmlns="http://www.w3.org/2000/svg" fill="currentColor" id="avito">
        <path
                fill-rule="evenodd"
                clip-rule="evenodd"
                d="M7.357 4.092a3.108 3.108 0 11-6.216 0 3.108 3.108 0 016.216 0zm4.001 2.435a2.434 2.434 0 100-4.869 2.434 2.434 0 000 4.869zm3.783 4.675a3.782 3.782 0 11-7.565 0 3.782 3.782 0 017.565 0zm-9.132 0a1.76 1.76 0 11-3.52 0 1.76 1.76 0 013.52 0z"
        />
    </symbol>
    <symbol viewBox="0 0 16 16" xmlns="http://www.w3.org/2000/svg" fill="currentColor" id="vk">
        <path
                fill-rule="evenodd"
                clip-rule="evenodd"
                d="M15.633 3.73c.111-.391 0-.678-.53-.678h-1.75c-.445 0-.65.248-.761.521 0 0-.89 2.283-2.152 3.767-.407.429-.593.566-.816.566-.11 0-.278-.137-.278-.527v-3.65c0-.468-.123-.677-.494-.677h-2.75a.432.432 0 00-.446.423c0 .444.63.547.695 1.796v2.713c0 .594-.102.702-.324.702-.594 0-2.037-2.293-2.893-4.918-.168-.51-.336-.716-.783-.716H.6c-.5 0-.6.248-.6.521 0 .488.593 2.908 2.763 6.108 1.447 2.186 3.484 3.371 5.339 3.371 1.113 0 1.25-.263 1.25-.716v-1.652c0-.527.106-.632.458-.632.26 0 .705.137 1.743 1.19 1.187 1.25 1.383 1.81 2.05 1.81h1.75c.5 0 .75-.263.607-.782-.158-.518-.725-1.269-1.477-2.16-.408-.507-1.02-1.053-1.205-1.326-.26-.352-.186-.508 0-.82 0 0 2.132-3.161 2.355-4.235z"
        />
    </symbol>
    <symbol viewBox="0 0 36 36" xmlns="http://www.w3.org/2000/svg"
            fill="currentColor" id="email">
        <path d="M32,6H4A2,2,0,0,0,2,8V28a2,2,0,0,0,2,2H32a2,2,0,0,0,2-2V8A2,2,0,0,0,32,6ZM30.46,28H5.66l7-7.24-1.44-1.39L4,26.84V9.52L16.43,21.89a2,2,0,0,0,2.82,0L32,9.21v17.5l-7.36-7.36-1.41,1.41ZM5.31,8H30.38L17.84,20.47Z"/>
    </symbol>
    <symbol xmlns="http://www.w3.org/2000/svg" fill="currentColor" id="site" viewBox="0 0 24 24">
        <path fill-rule="evenodd" clip-rule="evenodd"
              d="M14.982 19.61c.454-.7.909-1.6 1.236-2.755.755.29 1.273.636 1.591.909a8.182 8.182 0 0 1-2.864 1.845h.037v.001zm-8.8-1.855c.336-.273.845-.61 1.6-.91.336 1.164.773 2.064 1.236 2.764A8.2 8.2 0 0 1 6.2 17.755h-.018zm10.636-6.664c-.028-.81-.11-1.619-.245-2.418 1-.364 1.727-.8 2.236-1.2a8.136 8.136 0 0 1 1.282 3.618h-3.273zm-8.973-4.2a5.936 5.936 0 0 1-1.481-.8 8.2 8.2 0 0 1 2.654-1.7c-.427.636-.845 1.454-1.182 2.5h.01-.001zm7.137-2.5a8.145 8.145 0 0 1 2.654 1.7 6.01 6.01 0 0 1-1.481.8 9.58 9.58 0 0 0-1.182-2.5h.009zM14.8 9.118c.09.6.182 1.246.2 1.973H9c.027-.727.09-1.382.182-1.973 1.855.334 3.754.334 5.609 0h.009zM12 7.545c-.91 0-1.71-.072-2.39-.181.726-2.237 1.854-3.137 2.39-3.455.518.318 1.655 1.227 2.382 3.455A15.04 15.04 0 0 1 12 7.545zm-6.818-.072a8.03 8.03 0 0 0 2.245 1.2 18.368 18.368 0 0 0-.245 2.418h-3.31a8.13 8.13 0 0 1 1.319-3.618h-.01.001zm-1.3 5.436h3.3c.036.782.09 1.5.2 2.155a7.682 7.682 0 0 0-2.31 1.272 8.11 8.11 0 0 1-1.2-3.427h.01zM12 14.364c-1.09 0-2.027.09-2.845.236A16.91 16.91 0 0 1 9 12.91h6c-.027.608-.073 1.18-.145 1.69A15.388 15.388 0 0 0 12 14.355v.009zm0 5.727c-.545-.327-1.745-1.3-2.473-3.727A14.095 14.095 0 0 1 12 16.182c.955 0 1.773.063 2.482.182-.727 2.454-1.927 3.4-2.473 3.727H12zm6.927-3.764a7.634 7.634 0 0 0-2.309-1.272 17.95 17.95 0 0 0 .2-2.146h3.31a8.11 8.11 0 0 1-1.2 3.418h-.001zM12 2C6.477 2 2 6.477 2 12s4.477 10 10 10 10-4.477 10-10S17.523 2 12 2z"
        />
    </symbol>
    <symbol xmlns="http://www.w3.org/2000/svg" fill="currentColor" viewBox="-2 0 19 19" id="filters">
        <path d="M14.546 6.201a.554.554 0 0 1-.554.554h-1.79a2.22 2.22 0 0 1-4.298 0H1.008a.554.554 0 0 1 0-1.108h6.896a2.22 2.22 0 0 1 4.299 0h1.789a.554.554 0 0 1 .554.554zm0 3.7a.554.554 0 0 1-.554.554H6.987a2.22 2.22 0 0 1-4.298 0h-1.68a.554.554 0 0 1 0-1.108h1.68a2.22 2.22 0 0 1 4.298 0h7.005a.554.554 0 0 1 .554.554zm0 3.7a.554.554 0 0 1-.554.555h-1.79a2.22 2.22 0 0 1-4.298 0H1.008a.554.554 0 0 1 0-1.109h6.896a2.22 2.22 0 0 1 4.299 0h1.789a.554.554 0 0 1 .554.554zm-8.597-3.7a1.11 1.11 0 1 0-1.111 1.111 1.112 1.112 0 0 0 1.11-1.11zm5.215-3.7a1.111 1.111 0 1 0-1.11 1.11 1.112 1.112 0 0 0 1.11-1.11zm0 7.4a1.111 1.111 0 1 0-1.11 1.111 1.112 1.112 0 0 0 1.11-1.11z"/>
    </symbol>
    <symbol xmlns="http://www.w3.org/2000/svg" viewBox="0 0 48 48" fill="none" stroke="currentColor" id="close">
        <path d="M8 8L40 40" stroke-width="4" stroke-linecap="round" stroke-linejoin="round"/>
        <path d="M8 40L40 8" stroke-width="4" stroke-linecap="round" stroke-linejoin="round"/>
    </symbol>
</svg>
